<svg width="29" height="29" viewBox="0 0 29 29" fill="none" xmlns="http://www.w3.org/2000/svg">
<path d="M9.36808 26.4199C9.90866 27.5267 11.4398 27.5267 11.9803 26.4199L13.8758 22.5395C14.3784 21.5106 15.1025 20.6142 15.9927 19.9189L19.5185 17.1648C20.2917 16.5608 20.2917 15.3616 19.5185 14.7576L15.9927 12.0035C15.1025 11.3082 14.3784 10.4117 13.8758 9.38287L11.9803 5.50242C11.4398 4.39571 9.90866 4.39571 9.36808 5.50242L7.4726 9.38287C6.97005 10.4117 6.24596 11.3082 5.35576 12.0035L1.82993 14.7576C1.05669 15.3616 1.05669 16.5608 1.82993 17.1648L5.35576 19.9189C6.24596 20.6142 6.97005 21.5106 7.4726 22.5395L9.36808 26.4199ZM22.9894 8.2973C23.3968 9.1482 24.5728 9.1482 24.98 8.2973C25.3541 7.51613 25.8959 6.83329 26.5644 6.30076L26.7425 6.15878C27.4192 5.61962 27.4192 4.56586 26.7425 4.0267L26.5644 3.88471C25.8959 3.35219 25.3541 2.66935 24.98 1.88818C24.5728 1.03727 23.3968 1.03727 22.9894 1.88818C22.6153 2.66935 22.0736 3.35219 21.4053 3.88471L21.227 4.0267C20.5504 4.56586 20.5504 5.61962 21.227 6.15878L21.4053 6.30076C22.0736 6.83329 22.6153 7.51613 22.9894 8.2973Z" stroke="#E3D2C8" stroke-width="2.5" stroke-linejoin="round"/>
</svg>
