<svg width="23" height="17" viewBox="0 0 23 17" fill="none" xmlns="http://www.w3.org/2000/svg">
<path d="M6.46948 0.100388C7.20263 0.100451 7.83457 0.360557 8.36011 0.878708C8.88577 1.39704 9.15112 2.02151 9.15112 2.7459V3.00957H15.3201C16.0533 3.0096 16.6851 3.26973 17.2107 3.78789C17.7363 4.30611 18.0016 4.9299 18.0017 5.6541V7.37285H20.114C20.5444 7.37285 20.9414 7.46903 21.3025 7.66289C21.6664 7.8583 21.9386 8.14097 22.1169 8.50859V8.50957C22.2387 8.76561 22.2996 9.03766 22.2996 9.325C22.2996 9.82182 22.1125 10.2983 21.7478 10.7518H21.7468L18.3474 14.8768C18.0059 15.2918 17.5472 15.6318 16.9753 15.8982C16.404 16.1645 15.852 16.2996 15.3201 16.2996H2.78101C2.04788 16.2995 1.4159 16.0394 0.890381 15.5213C0.364716 15.003 0.100342 14.3785 0.100342 13.6541V2.7459C0.100342 2.02151 0.364716 1.39704 0.890381 0.878708C1.4159 0.360545 2.04788 0.100482 2.78101 0.100388H6.46948ZM7.57593 9.02715C7.28644 9.02715 6.97219 9.10426 6.63257 9.2625C6.29353 9.42047 6.03086 9.6099 5.84253 9.83086L2.45581 13.9568C2.32242 14.1329 2.27037 14.2608 2.27026 14.3475C2.27026 14.4498 2.30724 14.5164 2.37769 14.5623C2.45558 14.613 2.58529 14.6453 2.78101 14.6453H15.3201C15.6091 14.6453 15.9248 14.5671 16.2683 14.4051C16.6119 14.243 16.8712 14.0503 17.0515 13.8299L20.4402 9.70488V9.7039C20.5398 9.58382 20.5943 9.48366 20.615 9.40117L20.6248 9.325C20.6248 9.22257 20.5878 9.15607 20.5173 9.11015C20.4394 9.05952 20.3097 9.02715 20.114 9.02715H7.57593ZM2.78101 1.75468C2.49972 1.75477 2.26404 1.85063 2.06812 2.04375C1.87212 2.23701 1.77515 2.46953 1.77515 2.7459V12.159L4.54858 8.7957V8.79472C4.8973 8.38054 5.35565 8.04071 5.91968 7.77422C6.48384 7.50771 7.03649 7.37285 7.57593 7.37285H16.3259V5.6541C16.3258 5.37793 16.2288 5.14609 16.033 4.95293C15.837 4.75982 15.6014 4.6639 15.3201 4.66386H8.68237C8.34928 4.66386 8.06207 4.54713 7.82788 4.31621C7.59383 4.08528 7.47534 3.80203 7.47534 3.47246V2.7459C7.47534 2.46953 7.37837 2.23701 7.18237 2.04375C6.98643 1.85064 6.75079 1.75474 6.46948 1.75468H2.78101Z" fill="#E3D2C8" stroke="#E3D2C8" stroke-width="0.2"/>
</svg>
