<svg width="24" height="24" viewBox="0 0 24 24" fill="none" xmlns="http://www.w3.org/2000/svg">
<path d="M12.0005 1.17627C14.9392 1.17627 15.3091 1.18955 16.4692 1.23682C17.6246 1.28839 18.4108 1.47249 19.0981 1.73877C19.8071 2.01807 20.4136 2.38818 21.0151 2.98975C21.6165 3.59118 21.9902 4.19266 22.2651 4.90576C22.5315 5.59756 22.7165 6.38408 22.7681 7.53564C22.8196 8.6915 22.8325 9.05713 22.8325 12.0005C22.8325 14.9433 22.8196 15.3087 22.7681 16.4644C22.7165 17.6202 22.5315 18.4067 22.2651 19.0942C21.9859 19.8031 21.6165 20.4088 21.0151 21.0103C20.4136 21.6118 19.8114 21.9862 19.0981 22.2612C18.4065 22.5275 17.6204 22.7126 16.4692 22.7642C15.3134 22.8157 14.9478 22.8286 12.0044 22.8286C9.06104 22.8286 8.69541 22.8157 7.53955 22.7642C6.38412 22.7126 5.59797 22.5275 4.91064 22.2612C4.20166 21.9819 3.59521 21.6118 2.99365 21.0103C2.39228 20.4088 2.01861 19.8074 1.74365 19.0942C1.47725 18.4024 1.29229 17.6159 1.24072 16.4644C1.18917 15.3087 1.17627 14.939 1.17627 12.0005C1.17627 9.06143 1.18916 8.69111 1.24072 7.53955C1.2923 6.38406 1.47733 5.598 1.74365 4.91064C2.02295 4.20166 2.39209 3.59521 2.99365 2.99365C3.59521 2.39209 4.19736 2.01865 4.91064 1.74365C5.59808 1.4773 6.38423 1.29228 7.53564 1.24072C8.6915 1.18916 9.06143 1.17627 12.0005 1.17627ZM12.0005 3.12744C9.10869 3.12744 8.76846 3.13604 7.62549 3.19189C6.56872 3.23919 5.99712 3.41887 5.61475 3.56494C5.10774 3.7583 4.74677 3.99542 4.36865 4.37354C3.9907 4.75155 3.75864 5.11273 3.56104 5.61963C3.41067 6.00205 3.23426 6.57365 3.18701 7.63037C3.13546 8.77318 3.12256 9.11277 3.12256 12.0044C3.12256 14.896 3.13546 15.2356 3.18701 16.3784C3.23426 17.4351 3.41496 18.0067 3.56104 18.3892C3.75434 18.8961 3.9907 19.2572 4.36865 19.6353C4.74677 20.0134 5.10773 20.2462 5.61475 20.4438C5.99712 20.5942 6.56872 20.7696 7.62549 20.8169C8.76846 20.8685 9.10869 20.8813 12.0005 20.8813C14.8919 20.8813 15.2316 20.8685 16.3745 20.8169C17.4313 20.7696 18.0029 20.5899 18.3853 20.4438C18.8923 20.2505 19.2532 20.0134 19.6313 19.6353C20.0094 19.2572 20.2413 18.8961 20.439 18.3892C20.5893 18.0067 20.7657 17.4352 20.813 16.3784C20.8645 15.2356 20.8774 14.896 20.8774 12.0044C20.8774 9.11276 20.8645 8.77318 20.813 7.63037C20.7657 6.57359 20.585 6.00205 20.439 5.61963C20.2456 5.11268 20.0094 4.75159 19.6313 4.37354C19.2532 3.99541 18.8923 3.7626 18.3853 3.56494C18.0029 3.41457 17.4313 3.23917 16.3745 3.19189C15.2316 3.14033 14.8919 3.12744 12.0005 3.12744ZM12.0005 6.43994C15.0683 6.44015 17.5601 8.93265 17.5601 12.0005C17.5598 15.0681 15.0681 17.5598 12.0005 17.5601C8.93265 17.5601 6.44015 15.0726 6.43994 12.0005C6.43994 8.92822 8.93252 6.43994 12.0005 6.43994ZM12.0005 8.39111C10.0067 8.39111 8.39111 10.0067 8.39111 12.0005C8.39132 13.9941 10.0069 15.6099 12.0005 15.6099C13.9939 15.6097 15.6097 13.9939 15.6099 12.0005C15.6099 10.0069 13.9941 8.39132 12.0005 8.39111ZM17.7788 4.92334C18.4955 4.92334 19.0767 5.50452 19.0767 6.22119C19.0765 6.93769 18.4954 7.51807 17.7788 7.51807C17.0624 7.51791 16.4821 6.9376 16.4819 6.22119C16.4819 5.50461 17.0623 4.9235 17.7788 4.92334Z" fill="#E3D2C8"/>
</svg>
