<svg width="22" height="25" viewBox="0 0 22 25" fill="none" xmlns="http://www.w3.org/2000/svg">
<path fill-rule="evenodd" clip-rule="evenodd" d="M15.6004 5.75781C17.271 5.75781 19.0411 6.67358 20.3006 8.25293C16.1712 10.5296 16.84 16.4621 21.0125 18.0488C20.4388 19.3274 20.1626 19.8988 19.4236 21.0312C18.3927 22.6122 16.9385 24.5812 15.1355 24.5957C13.5358 24.6128 13.1229 23.5467 10.951 23.5596C8.77865 23.5711 8.32527 24.6153 6.72246 24.5996C4.92093 24.5837 3.54339 22.8075 2.5125 21.2266C-0.371717 16.8091 -0.675234 11.6236 1.10332 8.86523C2.36858 6.90679 4.3642 5.76074 6.23906 5.76074C8.14692 5.76078 9.34746 6.81442 10.9275 6.81445C12.4602 6.81445 13.3934 5.75783 15.6004 5.75781ZM15.117 0C15.337 1.4941 14.7288 2.95751 13.9266 3.99316C13.0682 5.10404 11.5886 5.96379 10.1551 5.91895C9.89341 4.48845 10.5635 3.01425 11.3787 2.02344C12.2729 0.930014 13.8058 0.0912473 15.117 0Z" fill="#0B0B0A"/>
</svg>
