<svg width="113" height="23" viewBox="0 0 113 23" fill="none" xmlns="http://www.w3.org/2000/svg">
<path d="M1.19209e-05 22.592V0.0319996H2.78401L11.648 16.544H10.656L19.456 0.0319996H22.176V22.592H19.2V4.736H19.904L12.128 19.136H10.112L2.24001 4.704H3.00801V22.592H1.19209e-05ZM27.1465 22.592V6.976H30.2825V10.304H29.9305C30.3998 9.10933 31.1358 8.21333 32.1385 7.616C33.1412 6.99733 34.2932 6.688 35.5945 6.688C36.8318 6.688 37.8558 6.92267 38.6665 7.392C39.4985 7.84 40.1172 8.53333 40.5225 9.472C40.9278 10.3893 41.1305 11.552 41.1305 12.96V22.592H37.8985V13.152C37.8985 12.256 37.7812 11.5307 37.5465 10.976C37.3118 10.4 36.9598 9.97333 36.4905 9.696C36.0212 9.41867 35.4132 9.28 34.6665 9.28C33.8132 9.28 33.0558 9.46133 32.3945 9.824C31.7545 10.1867 31.2532 10.7093 30.8905 11.392C30.5492 12.0747 30.3785 12.864 30.3785 13.76V22.592H27.1465ZM52.912 22.88C51.2053 22.88 49.7333 22.56 48.496 21.92C47.28 21.2587 46.3307 20.3307 45.648 19.136C44.9867 17.92 44.656 16.48 44.656 14.816C44.656 13.1947 44.9867 11.776 45.648 10.56C46.3093 9.344 47.216 8.39467 48.368 7.712C49.52 7.02933 50.832 6.688 52.304 6.688C53.7547 6.688 54.992 7.008 56.016 7.648C57.0613 8.26667 57.8613 9.152 58.416 10.304C58.9707 11.456 59.248 12.832 59.248 14.432V15.52H47.216V13.536H57.072L56.528 13.984C56.528 12.384 56.176 11.1467 55.472 10.272C54.768 9.39733 53.7547 8.96 52.432 8.96C51.4293 8.96 50.576 9.19467 49.872 9.664C49.1893 10.1333 48.6667 10.784 48.304 11.616C47.9413 12.448 47.76 13.4187 47.76 14.528V14.72C47.76 15.9573 47.952 17.0027 48.336 17.856C48.7413 18.688 49.328 19.3173 50.096 19.744C50.864 20.1707 51.8133 20.384 52.944 20.384C53.84 20.384 54.7147 20.2453 55.568 19.968C56.4427 19.6693 57.264 19.2107 58.032 18.592L58.992 20.832C58.288 21.472 57.3813 21.9733 56.272 22.336C55.1627 22.6987 54.0427 22.88 52.912 22.88ZM62.8355 22.592V6.976H65.9715V10.304H65.6195C65.8968 9.536 66.2808 8.88533 66.7715 8.352C67.2622 7.81867 67.8488 7.41333 68.5315 7.136C69.2355 6.83733 70.0035 6.688 70.8355 6.688C72.1368 6.688 73.1928 6.99733 74.0035 7.616C74.8142 8.23467 75.3688 9.184 75.6675 10.464H75.2195C75.6248 9.29067 76.3182 8.37333 77.2995 7.712C78.2808 7.02933 79.4222 6.688 80.7235 6.688C81.9182 6.688 82.8995 6.92267 83.6675 7.392C84.4355 7.84 85.0115 8.53333 85.3955 9.472C85.7795 10.3893 85.9715 11.552 85.9715 12.96V22.592H82.7395V13.12C82.7395 11.7973 82.5048 10.8267 82.0355 10.208C81.5875 9.58933 80.8408 9.28 79.7955 9.28C79.0275 9.28 78.3555 9.46133 77.7795 9.824C77.2035 10.1867 76.7555 10.72 76.4355 11.424C76.1368 12.1067 75.9875 12.9173 75.9875 13.856V22.592H72.7555V13.12C72.7555 11.7973 72.5315 10.8267 72.0835 10.208C71.6355 9.58933 70.8888 9.28 69.8435 9.28C69.0542 9.28 68.3715 9.46133 67.7955 9.824C67.2408 10.1867 66.8142 10.72 66.5155 11.424C66.2168 12.1067 66.0675 12.9173 66.0675 13.856V22.592H62.8355ZM90.2023 3.36V0H93.9783V3.36H90.2023ZM90.4903 22.592V6.976H93.7223V22.592H90.4903ZM105.056 22.88C103.477 22.88 102.112 22.5493 100.96 21.888C99.8288 21.2267 98.9435 20.288 98.3035 19.072C97.6635 17.856 97.3435 16.4267 97.3435 14.784C97.3435 13.12 97.6635 11.6907 98.3035 10.496C98.9435 9.28 99.8288 8.34133 100.96 7.68C102.112 7.01867 103.477 6.688 105.056 6.688C106.613 6.688 107.957 7.01867 109.088 7.68C110.24 8.34133 111.136 9.28 111.776 10.496C112.416 11.712 112.736 13.1413 112.736 14.784C112.736 16.4267 112.416 17.856 111.776 19.072C111.136 20.288 110.24 21.2267 109.088 21.888C107.957 22.5493 106.613 22.88 105.056 22.88ZM105.024 20.384C106.368 20.384 107.445 19.904 108.256 18.944C109.066 17.984 109.472 16.5973 109.472 14.784C109.472 12.9493 109.066 11.5627 108.256 10.624C107.445 9.68533 106.368 9.216 105.024 9.216C103.701 9.216 102.634 9.68533 101.824 10.624C101.013 11.5627 100.608 12.9493 100.608 14.784C100.608 16.5973 101.013 17.984 101.824 18.944C102.634 19.904 103.701 20.384 105.024 20.384Z" fill="white"/>
</svg>
